<svg version="1.0" xmlns="http://www.w3.org/2000/svg" width="1706.667" height="1706.667" viewBox="0 0 1280 1280"><path d="M634.9 5.8c-2.6 2.6-24.2 23.9-48 47.4-23.9 23.5-61.1 60.2-82.7 81.6l-39.3 38.8 13.2 12.4c7.2 6.9 15.3 14.5 17.9 17 4.3 4.1 26.3 24.9 43.3 41 3.8 3.6 9.7 9.2 13.2 12.5 3.4 3.3 12 11.4 19 18s14.6 13.8 17 16c2.3 2.2 10.6 10.1 18.4 17.5 7.9 7.4 18.4 17.4 23.5 22.2 5 4.8 9.4 8.8 9.7 8.8.3 0 1.6-.9 2.8-1.9 1.2-1.1 4-3.4 6.3-5.3 2.3-1.8 4.6-3.8 5.2-4.3.6-.6 3.8-3.3 7.1-6 3.3-2.8 7.1-6 8.5-7.1 6-5.1 12.7-10.7 14.5-12.3 5.3-4.3 14.1-11.7 15.3-12.8.7-.7 3.4-2.9 5.9-5 2.6-2.1 5.4-4.5 6.3-5.3.9-.8 3.6-3.1 6-5s4.8-4 5.4-4.5c1.2-1.1 14.8-12.7 18.1-15.4 2.7-2.2 13.4-11.1 16.5-13.8 1.4-1.2 7.5-6.2 13.5-11.3 6.1-5 13-10.9 15.5-13 6.5-5.6 8.3-7.2 12.5-10.5 2-1.7 4.7-3.9 5.9-5 11.5-9.9 22-18.5 22.7-18.5 1.9 0 1.6-3.2-.5-5.2-2.7-2.6-22.3-20.9-27.6-25.8-3.1-2.8-19.2-18-34.1-32-2.6-2.5-9.3-8.8-15-14-5.6-5.2-11.9-11.1-13.9-13-2.1-1.9-9.3-8.7-16.1-15-6.7-6.3-14.4-13.5-17-16-2.6-2.5-8.9-8.4-14.1-13.1-5.1-4.8-12.3-11.5-16-15-3.7-3.5-11.1-10.5-16.4-15.4-5.3-5-11.5-10.7-13.6-12.8-2.2-2-4-3.7-4.1-3.7-.1 0-2.3 2.2-4.8 4.8zM296.5 189.7c.2 25.2.7 71 1 101.8.4 30.8.7 67.5.9 81.6.3 28.6-.3 26.3 8.1 32.5 2.2 1.6 5.6 4.4 7.5 6.1 1.9 1.8 4 3.3 4.7 3.3.6 0 1.3.4 1.5.9.2.5 10.9 9.3 23.8 19.5 12.9 10.3 24.2 19.2 25 19.9.8.7 5.8 4.6 11 8.7s9.7 7.7 10 8c.3.3 2.5 2.1 5 4s4.7 3.7 5 4c.3.3 3.2 2.5 6.5 5 3.2 2.5 6.7 5.2 7.6 6 .9.8 2.9 2.5 4.5 3.7 9.6 7.4 15.9 12.7 16.2 13.4.2.5 1 .9 1.7.9s1.5.4 1.7.8c.2.4 2.9 2.8 6.1 5.2 3.1 2.5 5.7 4.8 5.7 5.2 0 .5.4.8 1 .8 1 0 21.3 16 21.8 17.2.2.5 1 .8 1.7.8s1.5.4 1.7.9c.2.8 23.9 19.8 34.8 28.1 1.8 1.4 3.8 3 4.4 3.6.6.6 3.3 2.7 5.9 4.7 2.6 2 5.4 4.2 6.1 4.9.8.7 2.3 2 3.6 2.8 1.2.8 3.2 2.4 4.4 3.5 1.2 1.1 3.7 3.1 5.6 4.5 1.8 1.4 3.9 3.1 4.6 3.7.7.7 1.6 1.3 2 1.3.4 0 1.2.6 1.8 1.3.6.7 6.5 5.6 13.1 10.8 6.6 5.1 12.2 9.6 12.5 9.9.3.3 2.5 2.1 5 4s5 3.9 5.7 4.5c.7.5 1.8 1.5 2.5 2 .7.6 3.9 3.2 7.1 5.8 3.3 2.6 6.2 4.5 6.6 4.3.3-.2.6-3.1.5-6.3-.1-3.2-.5-19.5-.8-36.3-1.4-68.2-1.6-76.5-1.7-76.5 0 0-.2-7.9-.4-17.5-.1-9.6-.6-31.9-1-49.5s-.8-38.9-1-47.3c-.1-9.2-.6-15.7-1.2-16-1.1-.8-9-7.1-10.7-8.7-.6-.6-3.4-2.8-6.1-4.9-5.8-4.6-7-5.7-10.7-9.1-1.5-1.4-3-2.5-3.3-2.5-.3 0-2-1.3-3.8-3-1.7-1.6-7.4-6.3-12.5-10.4-5.1-4.1-9.9-8.1-10.7-8.8-.8-.7-2-1.8-2.7-2.3-1.1-.9-10.1-8.2-13.5-11-.7-.5-1.8-1.5-2.5-2-.7-.6-2.9-2.4-4.9-4-2-1.7-5.3-4.4-7.5-6.2-2.1-1.8-5.9-4.9-8.4-7-2.5-2.1-11.8-9.7-20.5-16.8-8.8-7.1-16.2-13.2-16.5-13.5-.3-.3-3-2.5-6-5s-6.4-5.3-7.5-6.2c-1.9-1.5-16.1-13.2-25.1-20.5-2.1-1.7-5.2-4.3-6.9-5.7-7.1-5.8-22.2-18.3-24-19.8-1.1-.9-4-3.3-6.5-5.3-5-4-9-7.3-19.6-16.1-3.9-3.3-8.8-7.3-10.8-8.9-2.1-1.7-5-4-6.5-5.3-1.4-1.3-4.2-3.5-6.1-5-1.9-1.5-3.7-2.9-4-3.2-1-1-7.7-6.6-11.4-9.5-2.1-1.7-5-4-6.5-5.3-1.4-1.3-4.7-3.9-7.3-5.9-2.7-2.1-4.8-4.1-4.8-4.5 0-.4-.7-.8-1.5-.8s-1.5-.4-1.5-.8-2.2-2.4-5-4.5l-5-3.7.5 45.7zM981.1 148c-1.8 1.6-4.9 4.2-6.8 5.7-3.5 2.7-15.2 12.3-20.3 16.7-1.4 1.1-6.2 5-10.5 8.6-4.4 3.5-8.5 6.9-9.1 7.5-.7.5-2.9 2.3-4.9 4-2.1 1.6-4.3 3.5-4.9 4-.6.6-3.1 2.6-5.6 4.5-2.5 1.9-4.9 4-5.5 4.6-.5.6-4.6 3.9-9 7.5-4.4 3.5-8.5 6.8-9.1 7.4-.7.5-2.9 2.3-4.9 4-2.1 1.6-4.3 3.5-4.9 4-.6.6-3.3 2.8-6.1 5-2.7 2.2-5.2 4.2-5.5 4.5-.3.3-8.1 6.8-17.5 14.5-9.3 7.6-17.1 14.2-17.3 14.7-.2.4-.8.8-1.2.8-.5 0-2.4 1.3-4.2 2.9-3.3 2.9-54.1 44.8-60.7 49.9-1.9 1.5-3.9 3.2-4.5 3.8-.6.5-10.1 8.4-21.1 17.4-11 9-22.7 18.6-26.1 21.4-3.4 2.8-8 6.7-10.4 8.5-2.3 1.9-4.8 4-5.4 4.5-.6.6-5.5 4.6-10.9 8.9-5.3 4.4-10 8.4-10.4 8.9-.3.6-.7 8-.9 16.5-.1 8.5-.5 28.1-.9 43.6-.3 15.5-.8 38.5-1 51.2-.3 12.6-.7 33.3-1 46-.3 12.6-.8 35.4-1.1 50.5-.3 15.1-.6 30.8-.7 34.7-.1 4-.1 7.3-.1 7.3.1 0 2.2-1.6 4.6-3.6 4.8-3.9 4.6-3.8 14.3-11.4 3.9-3 7.5-5.9 8.1-6.5 2.9-2.5 5.5-4.5 5.9-4.5.3 0 1.3-.8 2.3-1.8 1-.9 3.3-2.8 5.1-4.2 1.8-1.4 3.8-3 4.4-3.5.7-.6 10-8 20.7-16.5 51.4-40.7 73.5-58.4 73.8-59.2.2-.4 1-.8 1.7-.8s1.5-.3 1.7-.8c.3-.6 7-6.1 24.2-19.7 4.7-3.7 7.7-6.1 9.6-7.7.8-.7 4.6-3.7 8.5-6.7 3.8-3 7.2-5.7 7.5-6.1.3-.3 2.3-1.9 4.5-3.5 2.2-1.7 4.2-3.2 4.5-3.5.3-.3 2.5-2.1 5-4 7.1-5.5 8.2-6.4 10.2-8.3 1-.9 2.1-1.7 2.4-1.7.3 0 1.1-.6 1.8-1.3 1.2-1.1 2.8-2.4 13-10.5 2.2-1.8 4.8-3.9 5.7-4.7 1-.7 4.8-3.7 8.5-6.7 3.8-2.9 7.6-5.9 8.4-6.5.8-.7 6.7-5.4 13-10.4 11.5-9.1 17.1-13.5 19.3-15.4.7-.6 2.8-2.2 4.7-3.6 1.9-1.5 5-4 6.9-5.7l3.5-3 .3-28.9c.1-15.8.4-48 .6-71.4.3-23.5.7-43.1 1.1-43.7.3-.6.3-1.3-.2-1.5-.8-.6-.7-7 .1-8.4.3-.5.2-1.5-.2-2.2-.5-.7-.5-2.8-.1-4.7.5-2 .4-3.4-.2-3.4-.5 0-.6-.5-.2-1.1.6-1 1.8-89.9 1.2-89.9-.2 0-1.8 1.4-3.7 3zM298.8 467.5c-.4.5-.3 19.8.6 107 .3 28 .8 71.5 1.1 96.5.2 25 .4 46.9.5 48.6 0 2.7 1.1 4 8.3 9.5 4.5 3.5 8.4 6.6 8.7 6.9.3.3 2.3 1.9 4.5 3.6 2.1 1.6 4.6 3.6 5.5 4.4.9.8 2.9 2.5 4.6 3.7 1.6 1.2 4 3.1 5.4 4.2 1.4 1.1 9.7 7.7 18.5 14.7 8.8 7 16.2 13 16.5 13.3.3.3 3.2 2.6 6.5 5.1 3.3 2.4 6.6 5 7.3 5.7.7.7 4.1 3.4 7.5 6 3.4 2.6 7.1 5.5 8.2 6.5 2.9 2.4 9.9 8 13.2 10.5 1.5 1.2 3.9 3.1 5.3 4.2 3.7 3 3 2.5 23.4 18.6 10.4 8.3 19.8 15.8 20.8 16.7 1 1 2.2 1.8 2.7 1.8s1.1.4 1.3.8c.2.5 3.5 3.2 7.3 6.2 3.9 2.9 7.2 5.6 7.5 6 .3.3 4.4 3.6 9.2 7.3 4.7 3.7 9.2 7.3 10 7.9.7.7 3.1 2.6 5.3 4.3 2.2 1.6 4.9 3.7 6 4.7 5.6 4.7 48.7 38.8 49.1 38.8.3 0 1.6 1 2.9 2.2 1.3 1.3 3 2.7 3.7 3.3 3.8 2.9 10.9 8.8 12.3 10.1.8.9 1.5 1.3 1.5.9 0-.3 1 .4 2.3 1.5 1.2 1.2 4.7 4 7.7 6.3s6.4 5 7.4 5.9c1.1 1 2.3 1.8 2.7 1.8.4 0 .6-7.3.3-16.3-.2-8.9-.4-18.8-.5-21.9-.1-3.1.2-6.1.6-6.7.3-.6.3-1.1-.2-1.1-.4 0-.9-6.2-.9-13.8-.1-7.5-.5-27.4-.8-44.2-1-46.3-1.6-72.2-2-97.7-.3-12.8-.7-23.7-1-24.2-.4-.5-.2-1.2.4-1.6.6-.4.7-1.1.4-1.7-.4-.6-.8-5.4-.9-10.6-.1-7.1-.5-9.6-1.6-10.2-.8-.5-2.6-1.9-4-3.2-1.4-1.3-4.8-4.2-7.5-6.3-2.7-2.2-5.4-4.5-6-5-.7-.6-2.9-2.4-4.9-4-2.1-1.7-4.3-3.5-4.9-4-.6-.6-4.7-3.9-9.1-7.5-4.4-3.5-8.2-6.7-8.5-7-.3-.3-9-7.5-19.5-15.9-10.4-8.5-19.4-15.9-20-16.5-.5-.6-4.4-3.8-8.5-7-4.1-3.3-7.7-6.2-8-6.5-.3-.4-3-2.6-6-5.1-3-2.4-5.6-4.8-5.8-5.2-.2-.5-1-.8-1.7-.8s-1.5-.4-1.7-.9c-.1-.4-4.3-4.2-9.3-8.2-4.9-4-9.5-7.8-10.1-8.4-.7-.5-2.9-2.4-5-4.1-7.1-5.7-45.9-37.6-48.4-39.8-2.4-2-12.5-10.3-32.9-26.9-5.3-4.3-11-9-12.6-10.5-1.7-1.5-5.6-4.6-8.7-7-3.1-2.4-5.8-4.7-6-5-.2-.4-2.4-2.3-4.9-4.2-2.5-1.9-6.7-5.3-9.4-7.5-12.5-10.3-23.5-19.3-27.7-22.8-2.6-2.1-5.4-4.4-6.2-5.2-.7-.8-1.6-1.2-1.8-1zm681 5.7c-1.3 1.3-5.1 4.5-8.4 7.1-3.2 2.6-7.7 6.2-9.9 8-2.1 1.8-8.4 6.9-14 11.5-5.5 4.5-11.5 9.5-13.4 11-1.9 1.5-3.9 3.2-4.5 3.7-.6.6-3.6 3-6.6 5.5-3 2.5-6 4.9-6.6 5.5-.6.5-2.8 2.3-4.9 4-2.1 1.6-4.3 3.5-4.9 4-.6.6-12.3 10.2-26.1 21.4-13.7 11.2-25.5 21-26.1 21.7-.6.8-1.6 1.4-2.2 1.4-.6 0-1.2.3-1.4.8-.1.4-2.8 2.8-5.8 5.2-3 2.5-5.7 4.7-6 5-.3.3-2.5 2.1-5 4.1-2.5 2-5.5 4.5-6.7 5.5-2.3 2.1-3.3 2.9-10.8 8.9-2.8 2.1-5.2 4.2-5.5 4.5-.3.3-2.7 2.3-5.5 4.5-2.7 2.1-6 4.8-7.1 5.9-1.2 1.2-3.4 3-4.9 4.1-1.6 1.1-3.3 2.4-3.9 3-1.4 1.3-7.2 6.1-12.1 10-2 1.6-4.5 3.7-5.4 4.5-.9.8-6.4 5.3-12.1 10-5.8 4.6-10.7 8.7-11 9-.3.3-6.6 5.5-14 11.6-14 11.3-17.5 14.2-19.4 15.9-.6.6-2.9 2.4-5.1 4-2.1 1.7-4.7 3.7-5.5 4.5-2.4 2.2-6.9 6-12.5 10.5-2.8 2.2-6.3 5.1-7.8 6.6l-2.9 2.6-.4 18.4c-1 53.9-1.4 68.1-1.9 69-.4.5-.1.9.5.9s.8.5.5 1c-.4.6-.8 11.1-1.1 23.3-.2 12.2-.6 31.6-.9 43.2-.2 11.5-.7 35.2-1.1 52.5-.3 17.3-.6 33.4-.7 35.8-.1 2.3.2 4.2.7 4.2.4 0 2.3-1.2 4-2.8 1.7-1.5 4.7-3.9 6.6-5.4 11.5-9 21-16.7 22.5-18.1.9-1 2-1.7 2.3-1.7.4 0 1.8-1 3.2-2.3 2-1.8 9.5-7.8 25-20 .9-.7 3.6-2.9 6.1-4.9 2.5-2 6.6-5.2 9.1-7.1 2.4-1.9 5.3-4.1 6.4-5 10.8-8.8 15.6-12.6 25.9-20.7 6.6-5.2 12.5-9.9 13.1-10.5.6-.5 2.6-2.1 4.4-3.5 1.8-1.4 3.8-3 4.4-3.5.6-.6 2.7-2.2 4.8-3.7 2-1.5 4.2-3.3 5-4 .7-.7 4-3.3 7.3-5.8 3.2-2.5 6.7-5.2 7.6-6 1-.8 2.4-2 3.1-2.5.7-.6 5.1-4.1 9.8-7.8 10.8-8.7 10.2-8.2 18.5-14.7 3.9-3 7.9-6.2 9-7.2 1.9-1.7 39.6-31.6 46.4-36.8 1.8-1.4 3.8-3 4.4-3.5.7-.6 7.7-6.2 15.7-12.5 8-6.3 15.4-12.3 16.5-13.2 1.1-.9 6.5-5.2 12-9.5l9.9-7.9.2-21.4c.4-40.8 1.4-135.7 1.9-184.8.3-27 .4-49.2.2-49.2s-1.5 1-2.9 2.2zm-678.9 311c-.1 3.9 0 15.5.6 77.8.7 70 1.3 128.3 1.6 155.7l.2 19.3 3.6 2.7c2 1.5 4.1 3.2 4.8 3.8.6.5 2.7 2.2 4.5 3.6 1.8 1.5 7.2 5.7 12 9.5 4.7 3.9 10.1 8.1 11.9 9.4 4.1 3.1 9.2 7.3 9.9 8 .3.3 2.3 1.9 4.5 3.5 2.2 1.7 4.2 3.2 4.5 3.5.3.3 7 5.7 15 12s14.7 11.7 15 12c.3.3 2.3 1.9 4.5 3.6 2.2 1.6 4.5 3.3 5.1 3.9.6.5 2.9 2.3 5 4 2.1 1.6 4.9 4 6.1 5.2 1.3 1.2 2.3 1.9 2.3 1.6 0-.4 1.5.7 3.3 2.3 1.7 1.7 5 4.3 7.2 5.9 2.1 1.6 4.6 3.6 5.5 4.5.9.8 3.1 2.6 5 4 2.9 2.2 37.1 29.4 40.3 32 .7.6 14.3 11.3 30.2 24 16 12.6 29.5 23.3 30 23.7.6.5 6.9 5.5 14 11.2 7.2 5.7 13.9 11.1 15 12 1.1.9 3.8 3 6 4.6 2.2 1.7 4.9 3.8 6 4.8 1.1 1 7.2 5.9 13.5 10.9 6.3 4.9 13.2 10.4 15.3 12l3.8 3.1-.6-28.4c-.3-15.6-.8-38.1-1-49.9-.5-20.5-.9-41.7-2-90.5-1.2-55.5-1.6-74.3-1.8-77.6-.2-3.3-1.1-4.4-9.7-11.4-5.2-4.3-9.7-8-10-8.4-.3-.3-2.2-1.9-4.3-3.4-2-1.6-5-3.9-6.5-5.2-1.5-1.4-3.1-2.8-3.7-3.2-.5-.5-4.6-3.7-9-7.3-4.3-3.6-8.8-7.2-9.8-8-1.1-.8-2.4-2-3.1-2.5-.6-.6-3.6-3-6.6-5.5-3-2.5-5.7-4.7-6-5-.3-.3-5.4-4.6-11.5-9.5-6-4.9-12.6-10.3-14.5-12-2-1.6-5-4.1-6.9-5.5-1.8-1.4-4.3-3.4-5.5-4.5-1.2-1.1-6.9-5.8-12.6-10.4-5.8-4.7-10.7-8.8-11-9.1-.3-.3-2.5-2.1-5-4s-5.2-4.1-6-5c-.8-.8-6-5.1-11.5-9.5s-10.5-8.5-11.1-9c-.6-.6-3-2.7-5.4-4.6-2.3-1.8-8.6-7-13.9-11.4-5.3-4.4-13.1-10.7-17.1-14-4.1-3.3-8.5-6.9-9.7-8-1.2-1.1-3.7-3.2-5.5-4.7-7.4-5.9-12.5-10-15.3-12.4-1.6-1.3-4-3.2-5.1-4.2-3-2.4-9.7-7.9-17.6-14.6-3.7-3.1-7-5.6-7.2-5.6-.3 0-2.3-1.8-4.6-4-2.2-2.1-4-3.6-4-3.2 0 .4-.4.2-.8-.3-.6-.9-6.6-5.9-13.6-11.5-1-.8-4.9-4.1-8.6-7.3-3.8-3.1-7.1-5.7-7.4-5.7-.3 0-.6 1-.7 2.2zm674.1 3.4c-3 2.5-6.4 5.3-7.5 6.2-1.1.9-7.4 6.1-14 11.5-14.4 11.8-18.7 15.3-28.1 23.2-4 3.3-8.9 7.3-10.9 9-2.1 1.6-4.3 3.4-4.9 4-.6.5-3.4 2.8-6.1 5-2.8 2.1-5.2 4.2-5.5 4.5-.3.3-2.7 2.4-5.5 4.5-2.7 2.2-5.2 4.3-5.5 4.6-.3.3-4.3 3.6-8.9 7.3-9.9 8-9.8 8-13.3 11.1-1.5 1.3-4.5 3.6-6.5 5.2-2.1 1.5-4 3-4.3 3.4-.3.3-6.1 5.1-13 10.8-6.9 5.6-13.7 11.2-15.1 12.4-1.4 1.2-4.3 3.5-6.4 5.2-2.1 1.6-4.3 3.5-4.9 4-.6.6-4.7 3.9-9.1 7.5-4.4 3.5-8.7 7-9.5 7.7-5.6 4.8-7.2 6.1-10.6 8.8-2.1 1.6-8.1 6.6-13.4 11-5.3 4.4-11.6 9.6-13.9 11.5-2.4 1.9-13.9 11.3-25.5 20.8-18.2 15-25.4 20.9-30.9 25.7-1.1.9-8 6.4-13.1 10.5-1 .8-2.6 2.3-3.5 3.2-.8 1-2.1 1.8-2.9 1.8-.7 0-1.1.4-.8.9.4.5.1 1.1-.5 1.3-.8.3-1.2 6.3-1.5 18.8-.1 10.2-.6 30.9-.9 46-.3 15.1-.8 37.4-1 49.5-.3 12.1-.7 31.7-1 43.5-.3 11.8-.7 35.4-1 52.5-.3 17.1-.7 32.9-.9 35.3-.2 2.3-.2 4.2 0 4.2s1.6-1.1 3.1-2.5c3.1-2.8 3.2-2.8 8.8-6.9 2.2-1.7 4.2-3.3 4.5-3.6.3-.3 3.7-3 7.5-6 3.9-3 7.9-6.2 9-7.2 1.1-1 6.7-5.5 12.5-10s10.7-8.6 10.8-9c.2-.4 1-.8 1.7-.8s1.5-.4 1.7-.8c.3-.9 18.4-15.5 24.2-19.7 1.6-1.1 3.6-2.7 4.5-3.6.9-.9 3.6-3.2 6.1-5 4.3-3.3 33.2-26.2 35.7-28.4 1.5-1.2 2.3-1.9 8.3-6.5 2.5-1.9 5-3.9 5.6-4.5.7-.5 2.6-2.1 4.4-3.5 1.8-1.4 4.9-3.9 7-5.5 2-1.7 5.4-4.4 7.6-6 2.1-1.7 6.6-5.3 9.9-8 3.4-2.8 7.4-5.9 8.9-7 1.6-1.1 3.3-2.5 4-3 .6-.6 7-5.7 14.1-11.4 7.2-5.6 13.9-11 15-11.9 1.1-1 4.3-3.5 7-5.7 2.8-2.2 5.5-4.4 6.2-5 .6-.5 3-2.3 5.2-3.9 2.3-1.7 4.1-3.3 4.1-3.8 0-.4.6-.8 1.4-.8.8 0 1.6-.3 1.8-.8.2-.4 2.3-2.3 4.8-4.2 2.5-1.9 5.4-4.3 6.5-5.2 1.1-.9 6.1-4.9 11-8.8 5-3.9 9.8-7.8 10.9-8.6 1-.9 5.9-4.8 11-8.7 5-4 10.2-8.1 11.5-9.2 1.3-1.1 3.5-2.9 4.9-4.1l2.6-2.1.2-21.9c1.1-91.6 1.5-128.2 1.4-129.9-.1-1.1-.1-2.5-.1-3 0-.6.2-23.4.6-50.8.3-27.3.4-49.7.3-49.7-.2 0-2.8 2.1-5.8 4.6z"/></svg>