<?xml version="1.0" standalone="no"?>
<!DOCTYPE svg PUBLIC "-//W3C//DTD SVG 20010904//EN"
 "http://www.w3.org/TR/2001/REC-SVG-20010904/DTD/svg10.dtd">
<svg version="1.0" xmlns="http://www.w3.org/2000/svg"
 width="1280.000000pt" height="1280.000000pt" viewBox="0 0 1280.000000 1280.000000"
 preserveAspectRatio="xMidYMid meet">
<metadata>
Created by potrace 1.11, written by Peter Selinger 2001-2013
</metadata>
<g transform="translate(0.000000,1280.000000) scale(0.100000,-0.100000)"
fill="#000000" stroke="none">
<path d="M6349 12742 c-26 -26 -242 -239 -480 -474 -239 -235 -611 -602 -827
-816 l-393 -388 132 -124 c72 -69 153 -145 179 -170 43 -41 263 -249 433 -410
38 -36 97 -92 132 -125 34 -33 120 -114 190 -180 70 -66 146 -138 170 -160 23
-22 106 -101 184 -175 79 -74 184 -174 235 -222 50 -48 94 -88 97 -88 3 0 16
9 28 19 12 11 40 34 63 53 23 18 46 38 52 43 6 6 38 33 71 60 33 28 71 60 85
71 60 51 127 107 145 123 53 43 141 117 153 128 7 7 34 29 59 50 26 21 54 45
63 53 9 8 36 31 60 50 24 19 48 40 54 45 12 11 148 127 181 154 27 22 134 111
165 138 14 12 75 62 135 113 61 50 130 109 155 130 65 56 83 72 125 105 20 17
47 39 59 50 115 99 220 185 227 185 19 0 16 32 -5 52 -27 26 -223 209 -276
258 -31 28 -192 180 -341 320 -26 25 -93 88 -150 140 -56 52 -119 111 -139
130 -21 19 -93 87 -161 150 -67 63 -144 135 -170 160 -26 25 -89 84 -141 131
-51 48 -123 115 -160 150 -37 35 -111 105 -164 154 -53 50 -115 107 -136 128
-22 20 -40 37 -41 37 -1 0 -23 -22 -48 -48z"/>
<path d="M2965 10903 c2 -252 7 -710 10 -1018 4 -308 7 -675 9 -816 3 -286 -3
-263 81 -325 22 -16 56 -44 75 -61 19 -18 40 -33 47 -33 6 0 13 -4 15 -9 2 -5
109 -93 238 -195 129 -103 242 -192 250 -199 8 -7 58 -46 110 -87 52 -41 97
-77 100 -80 3 -3 25 -21 50 -40 25 -19 47 -37 50 -40 3 -3 32 -25 65 -50 32
-25 67 -52 76 -60 9 -8 29 -25 45 -37 96 -74 159 -127 162 -134 2 -5 10 -9 17
-9 7 0 15 -4 17 -8 2 -4 29 -28 61 -52 31 -25 57 -48 57 -52 0 -5 4 -8 10 -8
10 0 213 -160 218 -172 2 -5 10 -8 17 -8 7 0 15 -4 17 -9 2 -8 239 -198 348
-281 18 -14 38 -30 44 -36 6 -6 33 -27 59 -47 26 -20 54 -42 61 -49 8 -7 23
-20 36 -28 12 -8 32 -24 44 -35 12 -11 37 -31 56 -45 18 -14 39 -31 46 -37 7
-7 16 -13 20 -13 4 0 12 -6 18 -13 6 -7 65 -56 131 -108 66 -51 122 -96 125
-99 3 -3 25 -21 50 -40 25 -19 50 -39 57 -45 7 -5 18 -15 25 -20 7 -6 39 -32
71 -58 33 -26 62 -45 66 -43 3 2 6 31 5 63 -1 32 -5 195 -8 363 -14 682 -16
765 -17 765 0 0 -2 79 -4 175 -1 96 -6 319 -10 495 -4 176 -8 389 -10 473 -1
92 -6 157 -12 160 -11 8 -90 71 -107 87 -6 6 -34 28 -61 49 -58 46 -70 57
-107 91 -15 14 -30 25 -33 25 -3 0 -20 13 -38 30 -17 16 -74 63 -125 104 -51
41 -99 81 -107 88 -8 7 -20 18 -27 23 -11 9 -101 82 -135 110 -7 5 -18 15 -25
20 -7 6 -29 24 -49 40 -20 17 -53 44 -75 62 -21 18 -59 49 -84 70 -25 21 -118
97 -205 168 -88 71 -162 132 -165 135 -3 3 -30 25 -60 50 -30 25 -64 53 -75
62 -19 15 -161 132 -251 205 -21 17 -52 43 -69 57 -71 58 -222 183 -240 198
-11 9 -40 33 -65 53 -50 40 -90 73 -196 161 -39 33 -88 73 -108 89 -21 17 -50
40 -65 53 -14 13 -42 35 -61 50 -19 15 -37 29 -40 32 -10 10 -77 66 -114 95
-21 17 -50 40 -65 53 -14 13 -47 39 -73 59 -27 21 -48 41 -48 45 0 4 -7 8 -15
8 -8 0 -15 4 -15 8 0 4 -22 24 -50 45 l-50 37 5 -457z"/>
<path d="M9811 11320 c-18 -16 -49 -42 -68 -57 -35 -27 -152 -123 -203 -167
-14 -11 -62 -50 -105 -86 -44 -35 -85 -69 -91 -75 -7 -5 -29 -23 -49 -40 -21
-16 -43 -35 -49 -40 -6 -6 -31 -26 -56 -45 -25 -19 -49 -40 -55 -46 -5 -6 -46
-39 -90 -75 -44 -35 -85 -68 -91 -74 -7 -5 -29 -23 -49 -40 -21 -16 -43 -35
-49 -40 -6 -6 -33 -28 -61 -50 -27 -22 -52 -42 -55 -45 -3 -3 -81 -68 -175
-145 -93 -76 -171 -142 -173 -147 -2 -4 -8 -8 -12 -8 -5 0 -24 -13 -42 -29
-33 -29 -541 -448 -607 -499 -19 -15 -39 -32 -45 -38 -6 -5 -101 -84 -211
-174 -110 -90 -227 -186 -261 -214 -34 -28 -80 -67 -104 -85 -23 -19 -48 -40
-54 -45 -6 -6 -55 -46 -109 -89 -53 -44 -100 -84 -104 -89 -3 -6 -7 -80 -9
-165 -1 -85 -5 -281 -9 -436 -3 -155 -8 -385 -10 -512 -3 -126 -7 -333 -10
-460 -3 -126 -8 -354 -11 -505 -3 -151 -6 -308 -7 -347 -1 -40 -1 -73 -1 -73
1 0 22 16 46 36 48 39 46 38 143 114 39 30 75 59 81 65 29 25 55 45 59 45 3 0
13 8 23 18 10 9 33 28 51 42 18 14 38 30 44 35 7 6 100 80 207 165 514 407
735 584 738 592 2 4 10 8 17 8 7 0 15 3 17 8 3 6 70 61 242 197 47 37 77 61
96 77 8 7 46 37 85 67 38 30 72 57 75 61 3 3 23 19 45 35 22 17 42 32 45 35 3
3 25 21 50 40 71 55 82 64 102 83 10 9 21 17 24 17 3 0 11 6 18 13 12 11 28
24 130 105 22 18 48 39 57 47 10 7 48 37 85 67 38 29 76 59 84 65 8 7 67 54
130 104 115 91 171 135 193 154 7 6 28 22 47 36 19 15 50 40 69 57 l35 30 3
289 c1 158 4 480 6 714 3 235 7 431 11 437 3 6 3 13 -2 15 -8 6 -7 70 1 84 3
5 2 15 -2 22 -5 7 -5 28 -1 47 5 20 4 34 -2 34 -5 0 -6 5 -2 11 6 10 18 899
12 899 -2 0 -18 -14 -37 -30z"/>
<path d="M2988 8125 c-4 -5 -3 -198 6 -1070 3 -280 8 -715 11 -965 2 -250 4
-469 5 -486 0 -27 11 -40 83 -95 45 -35 84 -66 87 -69 3 -3 23 -19 45 -36 21
-16 46 -36 55 -44 9 -8 29 -25 46 -37 16 -12 40 -31 54 -42 14 -11 97 -77 185
-147 88 -70 162 -130 165 -133 3 -3 32 -26 65 -51 33 -24 66 -50 73 -57 7 -7
41 -34 75 -60 34 -26 71 -55 82 -65 29 -24 99 -80 132 -105 15 -12 39 -31 53
-42 37 -30 30 -25 234 -186 104 -83 198 -158 208 -167 10 -10 22 -18 27 -18 5
0 11 -4 13 -8 2 -5 35 -32 73 -62 39 -29 72 -56 75 -60 3 -3 44 -36 92 -73 47
-37 92 -73 100 -79 7 -7 31 -26 53 -43 22 -16 49 -37 60 -47 56 -47 487 -388
491 -388 3 0 16 -10 29 -22 13 -13 30 -27 37 -33 38 -29 109 -88 123 -101 8
-9 15 -13 15 -9 0 3 10 -4 23 -15 12 -12 47 -40 77 -63 30 -23 64 -50 74 -59
11 -10 23 -18 27 -18 4 0 6 73 3 163 -2 89 -4 188 -5 219 -1 31 2 61 6 67 3 6
3 11 -2 11 -4 0 -9 62 -9 138 -1 75 -5 274 -8 442 -10 463 -16 722 -20 977 -3
128 -7 237 -10 242 -4 5 -2 12 4 16 6 4 7 11 4 17 -4 6 -8 54 -9 106 -1 71 -5
96 -16 102 -8 5 -26 19 -40 32 -14 13 -48 42 -75 63 -27 22 -54 45 -60 50 -7
6 -29 24 -49 40 -21 17 -43 35 -49 40 -6 6 -47 39 -91 75 -44 35 -82 67 -85
70 -3 3 -90 75 -195 159 -104 85 -194 159 -200 165 -5 6 -44 38 -85 70 -41 33
-77 62 -80 65 -3 4 -30 26 -60 51 -30 24 -56 48 -58 52 -2 5 -10 8 -17 8 -7 0
-15 4 -17 9 -1 4 -43 42 -93 82 -49 40 -95 78 -101 84 -7 5 -29 24 -50 41 -71
57 -459 376 -484 398 -24 20 -125 103 -329 269 -53 43 -110 90 -126 105 -17
15 -56 46 -87 70 -31 24 -58 47 -60 50 -2 4 -24 23 -49 42 -25 19 -67 53 -94
75 -125 103 -235 193 -277 228 -26 21 -54 44 -62 52 -7 8 -16 12 -18 10z"/>
<path d="M9798 8068 c-13 -13 -51 -45 -84 -71 -32 -26 -77 -62 -99 -80 -21
-18 -84 -69 -140 -115 -55 -45 -115 -95 -134 -110 -19 -15 -39 -32 -45 -37 -6
-6 -36 -30 -66 -55 -30 -25 -60 -49 -66 -55 -6 -5 -28 -23 -49 -40 -21 -16
-43 -35 -49 -40 -6 -6 -123 -102 -261 -214 -137 -112 -255 -210 -261 -217 -6
-8 -16 -14 -22 -14 -6 0 -12 -3 -14 -8 -1 -4 -28 -28 -58 -52 -30 -25 -57 -47
-60 -50 -3 -3 -25 -21 -50 -41 -25 -20 -55 -45 -67 -55 -23 -21 -33 -29 -108
-89 -28 -21 -52 -42 -55 -45 -3 -3 -27 -23 -55 -45 -27 -21 -60 -48 -71 -59
-12 -12 -34 -30 -49 -41 -16 -11 -33 -24 -39 -30 -14 -13 -72 -61 -121 -100
-20 -16 -45 -37 -54 -45 -9 -8 -64 -53 -121 -100 -58 -46 -107 -87 -110 -90
-3 -3 -66 -55 -140 -116 -140 -113 -175 -142 -194 -159 -6 -6 -29 -24 -51 -40
-21 -17 -47 -37 -55 -45 -24 -22 -69 -60 -125 -105 -28 -22 -63 -51 -78 -66
l-29 -26 -4 -184 c-10 -539 -14 -681 -19 -690 -4 -5 -1 -9 5 -9 6 0 8 -5 5
-10 -4 -6 -8 -111 -11 -233 -2 -122 -6 -316 -9 -432 -2 -115 -7 -352 -11 -525
-3 -173 -6 -334 -7 -358 -1 -23 2 -42 7 -42 4 0 23 12 40 28 17 15 47 39 66
54 115 90 210 167 225 181 9 10 20 17 23 17 4 0 18 10 32 23 20 18 95 78 250
200 9 7 36 29 61 49 25 20 66 52 91 71 24 19 53 41 64 50 108 88 156 126 259
207 66 52 125 99 131 105 6 5 26 21 44 35 18 14 38 30 44 35 6 6 27 22 48 37
20 15 42 33 50 40 7 7 40 33 73 58 32 25 67 52 76 60 10 8 24 20 31 25 7 6 51
41 98 78 108 87 102 82 185 147 39 30 79 62 90 72 19 17 396 316 464 368 18
14 38 30 44 35 7 6 77 62 157 125 80 63 154 123 165 132 11 9 65 52 120 95
l99 79 2 214 c4 408 14 1357 19 1848 3 270 4 492 2 492 -2 0 -15 -10 -29 -22z"/>
<path d="M3009 4958 c-1 -39 0 -155 6 -778 7 -700 13 -1283 16 -1557 l2 -193
36 -27 c20 -15 41 -32 48 -38 6 -5 27 -22 45 -36 18 -15 72 -57 120 -95 47
-39 101 -81 119 -94 41 -31 92 -73 99 -80 3 -3 23 -19 45 -35 22 -17 42 -32
45 -35 3 -3 70 -57 150 -120 80 -63 147 -117 150 -120 3 -3 23 -19 45 -36 22
-16 45 -33 51 -39 6 -5 29 -23 50 -40 21 -16 49 -40 61 -52 13 -12 23 -19 23
-16 0 4 15 -7 33 -23 17 -17 50 -43 72 -59 21 -16 46 -36 55 -45 9 -8 31 -26
50 -40 29 -22 371 -294 403 -320 7 -6 143 -113 302 -240 160 -126 295 -233
300 -237 6 -5 69 -55 140 -112 72 -57 139 -111 150 -120 11 -9 38 -30 60 -46
22 -17 49 -38 60 -48 11 -10 72 -59 135 -109 63 -49 132 -104 153 -120 l38
-31 -6 284 c-3 156 -8 381 -10 499 -5 205 -9 417 -20 905 -12 555 -16 743 -18
776 -2 33 -11 44 -97 114 -52 43 -97 80 -100 84 -3 3 -22 19 -43 34 -20 16
-50 39 -65 52 -15 14 -31 28 -37 32 -5 5 -46 37 -90 73 -43 36 -88 72 -98 80
-11 8 -24 20 -31 25 -6 6 -36 30 -66 55 -30 25 -57 47 -60 50 -3 3 -54 46
-115 95 -60 49 -126 103 -145 120 -20 16 -50 41 -69 55 -18 14 -43 34 -55 45
-12 11 -69 58 -126 104 -58 47 -107 88 -110 91 -3 3 -25 21 -50 40 -25 19 -52
41 -60 50 -8 8 -60 51 -115 95 -55 44 -105 85 -111 90 -6 6 -30 27 -54 46 -23
18 -86 70 -139 114 -53 44 -131 107 -171 140 -41 33 -85 69 -97 80 -12 11 -37
32 -55 47 -74 59 -125 100 -153 124 -16 13 -40 32 -51 42 -30 24 -97 79 -176
146 -37 31 -70 56 -72 56 -3 0 -23 18 -46 40 -22 21 -40 36 -40 32 0 -4 -4 -2
-8 3 -6 9 -66 59 -136 115 -10 8 -49 41 -86 73 -38 31 -71 57 -74 57 -3 0 -6
-10 -7 -22z"/>
<path d="M9750 4924 c-30 -25 -64 -53 -75 -62 -11 -9 -74 -61 -140 -115 -144
-118 -187 -153 -281 -232 -40 -33 -89 -73 -109 -90 -21 -16 -43 -34 -49 -40
-6 -5 -34 -28 -61 -50 -28 -21 -52 -42 -55 -45 -3 -3 -27 -24 -55 -45 -27 -22
-52 -43 -55 -46 -3 -3 -43 -36 -89 -73 -99 -80 -98 -80 -133 -111 -15 -13 -45
-36 -65 -52 -21 -15 -40 -30 -43 -34 -3 -3 -61 -51 -130 -108 -69 -56 -137
-112 -151 -124 -14 -12 -43 -35 -64 -52 -21 -16 -43 -35 -49 -40 -6 -6 -47
-39 -91 -75 -44 -35 -87 -70 -95 -77 -56 -48 -72 -61 -106 -88 -21 -16 -81
-66 -134 -110 -53 -44 -116 -96 -139 -115 -24 -19 -139 -113 -255 -208 -182
-150 -254 -209 -309 -257 -11 -9 -80 -64 -131 -105 -10 -8 -26 -23 -35 -32 -8
-10 -21 -18 -29 -18 -7 0 -11 -4 -8 -9 4 -5 1 -11 -5 -13 -8 -3 -12 -63 -15
-188 -1 -102 -6 -309 -9 -460 -3 -151 -8 -374 -10 -495 -3 -121 -7 -317 -10
-435 -3 -118 -7 -354 -10 -525 -3 -171 -7 -329 -9 -353 -2 -23 -2 -42 0 -42 2
0 16 11 31 25 31 28 32 28 88 69 22 17 42 33 45 36 3 3 37 30 75 60 39 30 79
62 90 72 11 10 67 55 125 100 58 45 107 86 108 90 2 4 10 8 17 8 7 0 15 4 17
8 3 9 184 155 242 197 16 11 36 27 45 36 9 9 36 32 61 50 43 33 332 262 357
284 15 12 23 19 83 65 25 19 50 39 56 45 7 5 26 21 44 35 18 14 49 39 70 55
20 17 54 44 76 60 21 17 66 53 99 80 34 28 74 59 89 70 16 11 33 25 40 30 6 6
70 57 141 114 72 56 139 110 150 119 11 10 43 35 70 57 28 22 55 44 62 50 6 5
30 23 52 39 23 17 41 33 41 38 0 4 6 8 14 8 8 0 16 3 18 8 2 4 23 23 48 42 25
19 54 43 65 52 11 9 61 49 110 88 50 39 98 78 109 86 10 9 59 48 110 87 50 40
102 81 115 92 13 11 35 29 49 41 l26 21 2 219 c11 916 15 1282 14 1299 -1 11
-1 25 -1 30 0 6 2 234 6 508 3 273 4 497 3 497 -2 0 -28 -21 -58 -46z"/>
</g>
</svg>
